<svg preserveAspectRatio="none" overflow="visible" style="display: block;" width="24.3558" height="24.3535" viewBox="0 0 24.3558 24.3535" fill="none" xmlns="http://www.w3.org/2000/svg">
<g id="Group 119">
<path id="Vector" d="M19.4844 4.87109C21.0919 4.87109 22.6995 4.87109 24.3558 4.87109C24.3558 11.2996 24.3558 17.7282 24.3558 24.3515C22.7482 24.3515 21.1407 24.3515 19.4844 24.3515C19.4844 17.923 19.4844 11.4944 19.4844 4.87109Z" fill="white"/>
<path id="Vector_2" d="M0 0C6.43027 0 12.8605 0 19.4857 0C19.4857 1.60714 19.4857 3.21427 19.4857 4.87011C13.0554 4.87011 6.62513 4.87011 0 4.87011C0 3.26297 0 1.65584 0 0Z" fill="white"/>
<path id="Vector_3" d="M9.74219 14.6133C11.3498 14.6133 12.9573 14.6133 14.6136 14.6133C14.6136 17.8276 14.6136 21.0418 14.6136 24.3535C13.006 24.3535 11.3985 24.3535 9.74219 24.3535C9.74219 21.1392 9.74219 17.925 9.74219 14.6133Z" fill="white"/>
<path id="Vector_4" d="M0 9.74219C3.21514 9.74219 6.43027 9.74219 9.74284 9.74219C9.74284 11.3493 9.74284 12.9565 9.74284 14.6123C6.5277 14.6123 3.31257 14.6123 0 14.6123C0 13.0052 0 11.398 0 9.74219Z" fill="white"/>
<path id="Vector_5" d="M0 19.4791C1.60757 19.4791 3.21514 19.4791 4.87142 19.4791C4.87142 21.0863 4.87142 22.6934 4.87142 24.3492C3.26385 24.3492 1.65628 24.3492 0 24.3492C0 22.7421 0 21.135 0 19.4791Z" fill="white"/>
</g>
</svg>
